<svg id="Capa_1" data-name="Capa 1" xmlns="http://www.w3.org/2000/svg" viewBox="0 0 800 224.36">
  <defs>
    <style>
      .cls-1 {
        fill: #dcdcdc;
      }

      .cls-2 {
        opacity: 0.2;
      }
    </style>
  </defs>
  <title>Yuriel_Creativo3d</title>
  <g>
    <path class="cls-1" d="M228.54,200.27a7.31,7.31,0,0,0-6,2.71,11.59,11.59,0,0,0-2.19,7.48c0,3.33.71,5.84,2.11,7.55a7.43,7.43,0,0,0,6.1,2.56,16,16,0,0,0,3.34-.34c1.07-.23,2.19-.53,3.35-.88v3.8a20.41,20.41,0,0,1-7.23,1.21q-6,0-9.15-3.61t-3.19-10.33a16.7,16.7,0,0,1,1.55-7.4,11,11,0,0,1,4.48-4.86,13.5,13.5,0,0,1,6.88-1.69,17.11,17.11,0,0,1,7.68,1.74l-1.59,3.69a25,25,0,0,0-2.9-1.14A10.78,10.78,0,0,0,228.54,200.27Z"/>
    <path class="cls-1" d="M251,203.09a10.13,10.13,0,0,1,2.18.19l-.43,4.06a8.16,8.16,0,0,0-1.93-.22,5.6,5.6,0,0,0-4.24,1.7,6.19,6.19,0,0,0-1.62,4.44V224h-4.37V203.46H244l.57,3.62h.23a8.12,8.12,0,0,1,2.66-2.91A6.29,6.29,0,0,1,251,203.09Z"/>
    <path class="cls-1" d="M266,224.36a10,10,0,0,1-7.49-2.8,10.59,10.59,0,0,1-2.7-7.69q0-5,2.51-7.9a8.64,8.64,0,0,1,6.88-2.88,8.44,8.44,0,0,1,6.42,2.47,9.43,9.43,0,0,1,2.36,6.79v2.36H260.26a6.75,6.75,0,0,0,1.62,4.59,5.6,5.6,0,0,0,4.28,1.6,15.7,15.7,0,0,0,3.39-.34,17.87,17.87,0,0,0,3.37-1.14V223a13.34,13.34,0,0,1-3.23,1.08A19.8,19.8,0,0,1,266,224.36Zm-.8-18a4.39,4.39,0,0,0-3.33,1.32,6.31,6.31,0,0,0-1.49,3.84h9.31a5.67,5.67,0,0,0-1.22-3.85A4.2,4.2,0,0,0,265.16,206.39Z"/>
    <path class="cls-1" d="M291.73,224l-.87-2.85h-.15a8.38,8.38,0,0,1-3,2.55,9.5,9.5,0,0,1-3.86.68,6.56,6.56,0,0,1-4.73-1.64,6.12,6.12,0,0,1-1.69-4.62,5.41,5.41,0,0,1,2.35-4.78c1.57-1.08,4-1.67,7.18-1.77l3.55-.11v-1.09a4.14,4.14,0,0,0-.92-2.94,3.74,3.74,0,0,0-2.85-1,9.78,9.78,0,0,0-3,.47A21.25,21.25,0,0,0,281,208l-1.41-3.12a15.14,15.14,0,0,1,3.66-1.32,16.4,16.4,0,0,1,3.75-.46q3.92,0,5.91,1.71c1.33,1.14,2,2.92,2,5.36V224Zm-6.49-3a5.42,5.42,0,0,0,3.81-1.33,4.82,4.82,0,0,0,1.44-3.72v-1.78l-2.63.11a9,9,0,0,0-4.49,1,3.13,3.13,0,0,0-1.4,2.81,2.74,2.74,0,0,0,.82,2.12A3.46,3.46,0,0,0,285.24,221Z"/>
    <path class="cls-1" d="M308.58,220.83a10.72,10.72,0,0,0,3.19-.5v3.28a8.6,8.6,0,0,1-1.86.53,13.05,13.05,0,0,1-2.37.22q-6.19,0-6.2-6.54v-11h-2.8v-1.93l3-1.6L303,198.9h2.69v4.56h5.85v3.31h-5.85v11a3.11,3.11,0,0,0,.79,2.33A2.89,2.89,0,0,0,308.58,220.83Z"/>
    <path class="cls-1" d="M315.61,198a2.44,2.44,0,0,1,.64-1.8,2.51,2.51,0,0,1,1.83-.63,2.44,2.44,0,0,1,1.79.63,2.4,2.4,0,0,1,.64,1.8,2.36,2.36,0,0,1-.64,1.75,2.41,2.41,0,0,1-1.79.64,2.47,2.47,0,0,1-1.83-.64A2.4,2.4,0,0,1,315.61,198ZM320.23,224h-4.36V203.46h4.36Z"/>
    <path class="cls-1" d="M331.14,224l-7.79-20.52H328l4.18,11.93a24.48,24.48,0,0,1,1.3,4.86h.14a34.51,34.51,0,0,1,1.3-4.86l4.18-11.93h4.64L335.86,224Z"/>
    <path class="cls-1" d="M365,213.69q0,5-2.58,7.84a9.22,9.22,0,0,1-7.18,2.83,9.91,9.91,0,0,1-5.09-1.3,8.59,8.59,0,0,1-3.39-3.73,12.59,12.59,0,0,1-1.19-5.64q0-5,2.56-7.8a9.31,9.31,0,0,1,7.22-2.8,9,9,0,0,1,7.05,2.87A11.09,11.09,0,0,1,365,213.69Zm-14.94,0q0,7.09,5.25,7.1t5.2-7.1q0-7-5.24-7a4.48,4.48,0,0,0-4,1.82A9.3,9.3,0,0,0,350.07,213.69Z"/>
    <path class="cls-1" d="M379.2,210.11a5.61,5.61,0,0,1,1.22-3.9,5.19,5.19,0,0,1,7,0,6.67,6.67,0,0,1,0,7.76,4.43,4.43,0,0,1-3.47,1.38,4.49,4.49,0,0,1-3.47-1.35A5.55,5.55,0,0,1,379.2,210.11Z"/>
    <path class="cls-1" d="M426.57,210.16q0,6.72-3.73,10.27T412.1,224h-7.59V196.86h8.39q6.47,0,10.07,3.49T426.57,210.16Zm-4.68.15q0-9.74-9.11-9.74h-3.84v19.68h3.16Q421.9,220.25,421.89,210.31Z"/>
    <path class="cls-1" d="M431.67,198a2.44,2.44,0,0,1,.64-1.8,2.51,2.51,0,0,1,1.83-.63,2.44,2.44,0,0,1,1.79.63,2.4,2.4,0,0,1,.64,1.8,2.36,2.36,0,0,1-.64,1.75,2.41,2.41,0,0,1-1.79.64,2.47,2.47,0,0,1-1.83-.64A2.4,2.4,0,0,1,431.67,198ZM436.29,224h-4.36V203.46h4.36Z"/>
    <path class="cls-1" d="M456.31,218.14a5.37,5.37,0,0,1-2.19,4.61,10.48,10.48,0,0,1-6.27,1.61,14.75,14.75,0,0,1-6.58-1.25v-3.76A16.19,16.19,0,0,0,448,221c2.68,0,4-.81,4-2.44a1.9,1.9,0,0,0-.45-1.29,5,5,0,0,0-1.46-1.08,25.65,25.65,0,0,0-2.84-1.26,13.13,13.13,0,0,1-4.8-2.75,5.09,5.09,0,0,1-1.25-3.56,4.68,4.68,0,0,1,2.12-4.09,10.11,10.11,0,0,1,5.78-1.46,16.31,16.31,0,0,1,6.85,1.47l-1.41,3.28a15.37,15.37,0,0,0-5.59-1.37c-2.3,0-3.45.65-3.45,2a2,2,0,0,0,.9,1.63,19.66,19.66,0,0,0,3.93,1.83,18.58,18.58,0,0,1,3.69,1.8,5,5,0,0,1,2.26,4.44Z"/>
    <path class="cls-1" d="M470,224.36a10,10,0,0,1-7.49-2.8,10.59,10.59,0,0,1-2.7-7.69q0-5,2.51-7.9a8.64,8.64,0,0,1,6.88-2.88,8.44,8.44,0,0,1,6.42,2.47,9.43,9.43,0,0,1,2.36,6.79v2.36H464.29a6.7,6.7,0,0,0,1.62,4.59,5.6,5.6,0,0,0,4.28,1.6,15.84,15.84,0,0,0,3.39-.34,18.11,18.11,0,0,0,3.37-1.14V223a13.34,13.34,0,0,1-3.23,1.08A19.8,19.8,0,0,1,470,224.36Zm-.8-18a4.36,4.36,0,0,0-3.33,1.32,6.25,6.25,0,0,0-1.49,3.84h9.31a5.67,5.67,0,0,0-1.22-3.85A4.21,4.21,0,0,0,469.19,206.39Z"/>
    <path class="cls-1" d="M501,224H496.6V211.37a5.51,5.51,0,0,0-1-3.55,3.7,3.7,0,0,0-3-1.17,4.83,4.83,0,0,0-4.05,1.64q-1.28,1.64-1.28,5.47V224h-4.36V203.46h3.42l.61,2.69h.22a6.14,6.14,0,0,1,2.63-2.26,8.87,8.87,0,0,1,3.79-.8q7.38,0,7.38,7.52Zm-6.16-23a3.8,3.8,0,0,1-1.53-.33,14.26,14.26,0,0,1-1.47-.72q-.72-.41-1.41-.72a3.06,3.06,0,0,0-1.32-.33c-1,0-1.68.71-2,2.13H484.8a6.55,6.55,0,0,1,1.43-3.93,4,4,0,0,1,3.11-1.35,4.07,4.07,0,0,1,1.56.32,15.63,15.63,0,0,1,1.48.73c.49.26.95.5,1.4.72a3.15,3.15,0,0,0,1.31.32c1,0,1.64-.71,2-2.13h2.32a6.79,6.79,0,0,1-1.43,3.89A4,4,0,0,1,494.81,201Z"/>
    <path class="cls-1" d="M525.24,213.69q0,5-2.57,7.84a9.23,9.23,0,0,1-7.19,2.83,9.9,9.9,0,0,1-5.08-1.3,8.59,8.59,0,0,1-3.39-3.73,12.59,12.59,0,0,1-1.19-5.64q0-5,2.56-7.8a9.31,9.31,0,0,1,7.22-2.8,9.07,9.07,0,0,1,7,2.87A11.08,11.08,0,0,1,525.24,213.69Zm-14.93,0q0,7.09,5.25,7.1t5.19-7.1q0-7-5.23-7a4.47,4.47,0,0,0-4,1.82A9.3,9.3,0,0,0,510.31,213.69Z"/>
    <path class="cls-1" d="M556.05,203.09a6.32,6.32,0,0,1-1.51,4.3,7.6,7.6,0,0,1-4.23,2.31v.15a8.13,8.13,0,0,1,4.9,2,5.8,5.8,0,0,1,1.63,4.31,7.18,7.18,0,0,1-2.76,6q-2.77,2.13-7.87,2.13a17.72,17.72,0,0,1-7.61-1.47V219a17.33,17.33,0,0,0,3.66,1.32,15.82,15.82,0,0,0,3.71.46,7.82,7.82,0,0,0,4.71-1.17,4.22,4.22,0,0,0,1.56-3.61,3.45,3.45,0,0,0-1.72-3.2,11,11,0,0,0-5.42-1h-2.36v-3.54h2.4c4.32,0,6.49-1.5,6.49-4.49a3.33,3.33,0,0,0-1.13-2.69,5.12,5.12,0,0,0-3.34-.95,10.12,10.12,0,0,0-3,.44,14.17,14.17,0,0,0-3.38,1.7l-2.13-3a14.19,14.19,0,0,1,8.66-2.74,10.32,10.32,0,0,1,6.4,1.76A5.79,5.79,0,0,1,556.05,203.09Z"/>
    <path class="cls-1" d="M584.34,210.16q0,6.72-3.73,10.27c-2.48,2.37-6.07,3.55-10.74,3.55h-7.59V196.86h8.39q6.47,0,10.07,3.49T584.34,210.16Zm-4.67.15q0-9.74-9.12-9.74h-3.84v19.68h3.16Q579.67,220.25,579.67,210.31Z"/>
  </g>
  <g>
    <path class="cls-1" d="M100.31,163.41H53.77V101L0,0H50.49L77.05,57.59,103.82,0H154.1L100.31,99.64ZM56.6,160.59H97.49V98.92l51.88-96.1H105.62L77,64.31,48.68,2.82H4.7l51.9,97.43Z"/>
    <path class="cls-1" d="M236.31,165.61c-22.16,0-39.47-5.79-51.44-17.2s-18.07-28-18.07-49.35V0h46.43V95.66c0,11,2,19,6.05,23.81s9.9,7.18,17.69,7.18c8.36,0,14.48-2.39,18.17-7.1s5.68-12.92,5.68-24.11V0H307V98.07c0,21.32-6.15,38.08-18.27,49.84S259,165.61,236.31,165.61ZM169.62,2.82V99.06c0,20.52,5.79,36.43,17.2,47.31s28.08,16.41,49.49,16.41c21.93,0,38.91-5.68,50.48-16.9s17.42-27.29,17.42-47.81V2.82H263.65V95.44c0,11.83-2.12,20.53-6.29,25.86s-11.11,8.17-20.39,8.17c-8.68,0-15.36-2.76-19.87-8.2s-6.69-14-6.69-25.61V2.82Z"/>
    <path class="cls-1" d="M479.62,163.41H427L392.9,105h-8.76v58.43H337.93V0h54c44.37,0,66.88,16.44,66.88,48.86,0,18.61-9,33.28-26.64,43.64Zm-51-2.82h45.75l-46.17-69,1.33-.75c17.6-9.86,26.52-24,26.52-41.94C456,33.6,450.7,22,440.23,14.42,429.61,6.72,413.37,2.82,392,2.82h-51.2V160.59h40.56V102.15h13.21ZM390.86,72.35h-9.54V32.84h10c15.73,0,23.71,6.06,23.71,18C415,65.12,406.88,72.35,390.86,72.35Zm-6.72-2.82h6.72c14.35,0,21.32-6.11,21.32-18.69,0-10.21-6.83-15.17-20.88-15.17h-7.16Z"/>
    <path class="cls-1" d="M536.6,163.41H490.17V0H536.6ZM493,160.59h40.79V2.82H493Z"/>
    <path class="cls-1" d="M666.65,163.41H568.49V0h98.16V37.64H614.7V60.08h48.11V97.73H614.7v27.49h51.95Zm-95.34-2.82h92.52V128h-52V94.9H660v-32H611.88V34.82h52v-32H571.31Z"/>
    <path class="cls-1" d="M800,163.41H692V0h46.21V125.55H800Zm-105.23-2.82H797.18V128.37H735.34V2.82H694.77Z"/>
  </g>
  <rect class="cls-2" x="492.99" y="2.82" width="40.78" height="157.76"/>
  <polygon class="cls-2" points="663.83 128.04 611.88 128.04 611.88 94.9 659.99 94.9 659.99 62.91 611.88 62.91 611.88 34.82 663.83 34.82 663.83 2.82 571.31 2.82 571.31 160.59 663.83 160.59 663.83 128.04"/>
  <polygon class="cls-2" points="735.34 2.82 694.77 2.82 694.77 160.59 797.18 160.59 797.18 128.37 735.34 128.37 735.34 2.82"/>
  <path class="cls-2" d="M237,129.47c-8.68,0-15.36-2.76-19.87-8.2s-6.69-14-6.69-25.61V2.82H169.62V99.06c0,20.52,5.79,36.43,17.2,47.31s28.08,16.41,49.49,16.41c21.93,0,38.91-5.68,50.48-16.9s17.42-27.29,17.42-47.81V2.82H263.65V95.44c0,11.83-2.12,20.53-6.29,25.86S246.25,129.47,237,129.47Z"/>
  <polygon class="cls-2" points="48.68 2.82 4.7 2.82 56.6 100.25 56.6 160.59 97.49 160.59 97.49 98.92 149.37 2.82 105.62 2.82 77.04 64.31 48.68 2.82"/>
  <path class="cls-2" d="M429.49,90.8c17.6-9.86,26.52-24,26.52-41.94C456,33.6,450.7,22,440.23,14.42,429.61,6.72,413.37,2.82,392,2.82h-51.2V160.59h40.56V102.15h13.21l34.05,58.44h45.75l-46.17-69ZM390.86,72.35h-9.54V32.84h10c15.73,0,23.71,6.06,23.71,18C415,65.12,406.88,72.35,390.86,72.35Z"/>
</svg>
